<?xml version="1.0" encoding="UTF-8" standalone="no"?>
<svg
   width="150px"
   height="380px"
   version="1.1"
   xml:space="preserve"
   style="fill-rule:evenodd;clip-rule:evenodd;stroke-linecap:round;stroke-linejoin:round;stroke-miterlimit:1.5;"
   id="svg2792"
   sodipodi:docname="GraviHarm.svg"
   inkscape:version="1.2.2 (732a01da63, 2022-12-09)"
   xmlns:inkscape="http://www.inkscape.org/namespaces/inkscape"
   xmlns:sodipodi="http://sodipodi.sourceforge.net/DTD/sodipodi-0.dtd"
   xmlns="http://www.w3.org/2000/svg"
   xmlns:svg="http://www.w3.org/2000/svg"><defs
   id="defs2796" /><sodipodi:namedview
   id="namedview2794"
   pagecolor="#ffffff"
   bordercolor="#000000"
   borderopacity="0.25"
   inkscape:showpageshadow="2"
   inkscape:pageopacity="0.0"
   inkscape:pagecheckerboard="0"
   inkscape:deskcolor="#d1d1d1"
   showgrid="false"
   inkscape:zoom="2.7026316"
   inkscape:cx="51.246349"
   inkscape:cy="191.29503"
   inkscape:window-width="3440"
   inkscape:window-height="1369"
   inkscape:window-x="-8"
   inkscape:window-y="-8"
   inkscape:window-maximized="1"
   inkscape:current-layer="layer1" />
    
    <g
   inkscape:groupmode="layer"
   id="layer1"
   inkscape:label="back"><rect
     style="fill-rule:evenodd;clip-rule:evenodd;stroke-linecap:round;stroke-linejoin:round;stroke-miterlimit:1.5;fill:#ffaaaa;stroke-width:0.476829"
     id="rect5184"
     width="150"
     height="380"
     x="0.39434651"
     y="0.55501318"
     inkscape:label="rect5184" /><g
     aria-label="
planet"
     id="text4103-9-08-9"
     style="font-size:12px;font-family:'Franklin Gothic Medium';-inkscape-font-specification:'Franklin Gothic Medium, ';opacity:0.58;fill:#800000;stroke-width:0.999999"><path
       d="m 24.79319,183.71275 h -1.359375 v -7.91601 h 1.277344 v 1.03125 q 0.615234,-1.1543 1.810547,-1.1543 0.984375,0 1.570312,0.85547 0.585938,0.85547 0.585938,2.18555 0,1.25976 -0.5625,2.1914 -0.556641,0.93164 -1.664063,0.93164 -1.142578,0 -1.658203,-0.94922 z m 0,-4.42382 q 0,0.64453 0.380859,1.07226 0.386719,0.42188 0.855469,0.42188 0.638672,0 0.931641,-0.55664 0.298828,-0.5625 0.298828,-1.42383 0,-0.90235 -0.298828,-1.46485 -0.298828,-0.56836 -0.890625,-0.56836 -0.533203,0 -0.908203,0.46289 -0.369141,0.4629 -0.369141,1.2129 z"
       id="path4727" /><path
       d="m 31.226784,181.71471 h -1.335938 v -7.99805 h 1.335938 z"
       id="path4729" /><path
       d="m 37.894753,181.71471 h -1.271485 q -0.169922,-0.53907 -0.205078,-1.19532 -0.533203,1.31836 -2.003906,1.31836 -0.884766,0 -1.423828,-0.51562 -0.533203,-0.52149 -0.533203,-1.30664 0,-2.03906 3.580078,-2.03906 0.140625,0 0.380859,0.006 v -0.44531 q 0,-0.91992 -1.253906,-0.91992 -1.21875,0 -1.382813,0.91992 l -1.136718,-0.16992 q 0.09375,-0.73828 0.761718,-1.21289 0.667969,-0.48047 1.933594,-0.48047 0.685547,0 1.119141,0.11719 0.433593,0.11133 0.732422,0.38672 0.298828,0.26953 0.410156,0.59179 0.117187,0.31641 0.117187,1.07813 v 2.67187 q 0,0.58008 0.175782,1.19532 z m -1.476563,-3.01172 q -2.589844,0 -2.589844,1.23633 0,0.36914 0.257813,0.63281 0.263672,0.25781 0.791015,0.25781 0.761719,0 1.148438,-0.48047 0.392578,-0.48633 0.392578,-1.10156 z"
       id="path4731" /><path
       d="m 44.217018,181.71471 h -1.335937 v -3.69727 q 0,-0.58594 -0.269532,-0.87891 -0.269531,-0.29882 -0.65039,-0.29882 -0.521485,0 -0.914063,0.45703 -0.392578,0.45703 -0.392578,1.37695 v 3.04102 h -1.335937 v -5.91797 h 1.21875 v 1.37109 q 0.638672,-1.49414 1.792968,-1.49414 0.779297,0 1.330079,0.49219 0.55664,0.49219 0.55664,1.72851 z"
       id="path4733" /><path
       d="m 49.578346,179.82799 1.207032,0.16406 q -0.234375,0.80273 -0.914063,1.32422 -0.679687,0.52148 -1.705078,0.52148 -1.230469,0 -1.980469,-0.82617 -0.75,-0.82617 -0.75,-2.23828 0,-1.3418 0.75586,-2.2207 0.755859,-0.87891 2.050781,-0.87891 1.265625,0 1.957031,0.86719 0.691406,0.86719 0.691406,2.22656 l -0.0059,0.15234 H 46.82444 q 0,0.60352 0.111328,0.9668 0.117188,0.36328 0.457031,0.63281 0.339844,0.26954 0.84961,0.26954 0.990234,0 1.335937,-0.96094 z m -0.08203,-1.76953 q -0.0059,-0.63868 -0.386719,-1.04297 -0.375,-0.4043 -0.93164,-0.4043 -0.550782,0 -0.919922,0.38086 -0.369141,0.375 -0.433594,1.06641 z"
       id="path4735" /><path
       d="m 54.781471,180.67174 v 1.04297 q -0.597656,0.1289 -0.925781,0.1289 -0.539062,0 -0.925781,-0.21093 -0.386719,-0.2168 -0.56836,-0.58594 -0.175781,-0.375 -0.175781,-1.14844 v -3.06445 h -0.738281 v -1.03711 h 0.814453 l 0.123047,-1.54102 1.095703,-0.0996 v 1.64063 h 1.189453 v 1.03711 H 53.48069 v 2.88867 q 0,0.55664 0.199219,0.76172 0.205078,0.19922 0.767578,0.19922 0.158203,0 0.333984,-0.0117 z"
       id="path4737" /></g><g
     aria-label="
satel"
     id="text4103-9-4-3"
     style="font-size:12px;font-family:'Franklin Gothic Medium';-inkscape-font-specification:'Franklin Gothic Medium, ';opacity:0.58;fill:#800000;stroke-width:0.999999"><path
       d="m 92.893196,109.98935 1.253906,-0.24024 q 0.28711,0.72071 1.265625,0.72071 1.242188,0 1.242188,-0.73242 0,-0.23438 -0.19336,-0.38672 -0.193359,-0.15235 -0.457031,-0.20508 l -1.078125,-0.20508 q -1.792969,-0.3457 -1.792969,-1.75195 0,-0.78516 0.56836,-1.33008 0.568359,-0.55078 1.693359,-0.55078 1.875,0 2.291016,1.37695 l -1.189453,0.24024 q -0.1875,-0.66797 -1.066407,-0.66797 -1.066406,0 -1.066406,0.66797 0,0.46289 0.861328,0.63867 l 1.271485,0.26367 q 1.482422,0.30469 1.482422,1.69922 0,0.97851 -0.761719,1.46484 -0.761719,0.48047 -1.810547,0.48047 -0.908203,0 -1.605469,-0.36328 -0.697265,-0.36914 -0.908203,-1.11914 z"
       id="path4703" /><path
       d="m 104.12562,111.34872 h -1.27149 q -0.16992,-0.53906 -0.20507,-1.19531 -0.53321,1.31836 -2.00391,1.31836 -0.884766,0 -1.423829,-0.51562 -0.533203,-0.52149 -0.533203,-1.30664 0,-2.03907 3.580082,-2.03907 0.14062,0 0.38086,0.006 v -0.44531 q 0,-0.91992 -1.25391,-0.91992 -1.21875,0 -1.38281,0.91992 l -1.136722,-0.16992 q 0.09375,-0.73828 0.761719,-1.21289 0.667973,-0.48047 1.933593,-0.48047 0.68555,0 1.11914,0.11719 0.43359,0.11132 0.73242,0.38671 0.29883,0.26954 0.41016,0.5918 0.11719,0.31641 0.11719,1.07813 v 2.67187 q 0,0.58008 0.17578,1.19531 z m -1.47656,-3.01171 q -2.58985,0 -2.58985,1.23632 0,0.36914 0.25781,0.63282 0.26368,0.25781 0.79102,0.25781 0.76172,0 1.14844,-0.48047 0.39258,-0.48633 0.39258,-1.10156 z"
       id="path4705" /><path
       d="m 108.29163,110.30576 v 1.04296 q -0.59765,0.12891 -0.92578,0.12891 -0.53906,0 -0.92578,-0.21094 -0.38672,-0.21679 -0.56836,-0.58593 -0.17578,-0.375 -0.17578,-1.14844 v -3.06446 h -0.73828 v -1.0371 h 0.81445 l 0.12305,-1.54102 1.0957,-0.0996 v 1.64063 h 1.18946 v 1.0371 h -1.18946 v 2.88868 q 0,0.55664 0.19922,0.76172 0.20508,0.19921 0.76758,0.19921 0.1582,0 0.33398,-0.0117 z"
       id="path4707" /><path
       d="m 113.00843,109.46201 1.20703,0.16406 q -0.23437,0.80273 -0.91406,1.32422 -0.67969,0.52148 -1.70508,0.52148 -1.23047,0 -1.98047,-0.82617 -0.75,-0.82617 -0.75,-2.23828 0,-1.3418 0.75586,-2.22071 0.75586,-0.8789 2.05078,-0.8789 1.26563,0 1.95703,0.86719 0.69141,0.86718 0.69141,2.22656 l -0.006,0.15234 h -4.06055 q 0,0.60352 0.11133,0.9668 0.11719,0.36328 0.45703,0.63281 0.33985,0.26953 0.84961,0.26953 0.99024,0 1.33594,-0.96093 z m -0.082,-1.76954 q -0.006,-0.63867 -0.38672,-1.04296 -0.375,-0.4043 -0.93164,-0.4043 -0.55078,0 -0.91992,0.38086 -0.36914,0.375 -0.4336,1.0664 z"
       id="path4709" /><path
       d="m 116.86976,111.34872 h -1.33594 v -7.99804 h 1.33594 z"
       id="path4711" /></g><g
     aria-label="octave"
     id="text4103-9-0-8"
     style="font-size:12px;font-family:'Franklin Gothic Medium';-inkscape-font-specification:'Franklin Gothic Medium, ';opacity:0.58;fill:#800000;stroke-width:0.999999"><path
       d="m 89.947868,182.5526 q -1.3125,0 -2.003906,-0.94336 -0.691406,-0.94336 -0.691406,-2.16211 0,-1.3125 0.761719,-2.18555 0.767578,-0.87305 2.021484,-0.87305 1.189453,0 1.951172,0.84961 0.767578,0.84961 0.767578,2.20899 0,1.40039 -0.796875,2.25586 -0.791016,0.84961 -2.009766,0.84961 z m 0.04687,-1.10157 q 1.347657,0 1.347657,-2.00976 0,-0.9082 -0.322266,-1.42969 -0.322266,-0.52734 -0.990234,-0.52734 -0.691407,0 -1.025391,0.54492 -0.333984,0.53906 -0.333984,1.43555 0,0.96679 0.351562,1.47656 0.357422,0.50976 0.972656,0.50976 z"
       id="path4714" /><path
       d="m 97.395134,180.25572 1.148437,0.11719 q -0.222656,1.11328 -0.861328,1.64648 -0.638672,0.53321 -1.541015,0.53321 -1.22461,0 -1.886719,-0.89063 -0.65625,-0.89648 -0.65625,-2.1914 0,-1.33594 0.720703,-2.20899 0.720703,-0.87305 1.921875,-0.87305 1.933594,0 2.302734,2.03907 l -1.148437,0.1582 q -0.152344,-1.10156 -1.083984,-1.10156 -0.679688,0 -0.990235,0.59765 -0.304687,0.5918 -0.304687,1.43555 0,0.89649 0.316406,1.38281 0.322266,0.48633 0.896484,0.48633 0.878907,0 1.166016,-1.13086 z"
       id="path4716" /><path
       d="m 102.31115,181.38658 v 1.04297 q -0.59766,0.12891 -0.92578,0.12891 -0.53906,0 -0.92578,-0.21094 -0.38672,-0.2168 -0.568362,-0.58594 -0.175782,-0.375 -0.175782,-1.14844 v -3.06445 h -0.738281 v -1.03711 h 0.814453 l 0.123047,-1.54101 1.095705,-0.0996 v 1.64062 h 1.18945 v 1.03711 h -1.18945 v 2.88867 q 0,0.55664 0.19922,0.76172 0.20508,0.19922 0.76758,0.19922 0.1582,0 0.33398,-0.0117 z"
       id="path4718" /><path
       d="m 108.49865,182.42955 h -1.27148 q -0.16993,-0.53906 -0.20508,-1.19531 -0.53321,1.31836 -2.00391,1.31836 -0.88476,0 -1.42383,-0.51563 -0.5332,-0.52148 -0.5332,-1.30664 0,-2.03906 3.58008,-2.03906 0.14062,0 0.38086,0.006 v -0.44531 q 0,-0.91993 -1.25391,-0.91993 -1.21875,0 -1.38281,0.91993 l -1.13672,-0.16993 q 0.0937,-0.73828 0.76172,-1.21289 0.66797,-0.48047 1.93359,-0.48047 0.68555,0 1.11914,0.11719 0.4336,0.11133 0.73242,0.38672 0.29883,0.26953 0.41016,0.5918 0.11719,0.3164 0.11719,1.07812 v 2.67188 q 0,0.58008 0.17578,1.19531 z m -1.47656,-3.01172 q -2.58985,0 -2.58985,1.23633 0,0.36914 0.25782,0.63281 0.26367,0.25781 0.79101,0.25781 0.76172,0 1.14844,-0.48046 0.39258,-0.48633 0.39258,-1.10157 z"
       id="path4720" /><path
       d="m 114.22912,176.51158 -2.00977,5.91797 h -1.10742 l -2.05664,-5.91797 h 1.39453 l 1.38281,4.01367 1.34766,-4.01367 z"
       id="path4722" /><path
       d="m 118.76427,180.54283 1.20704,0.16406 q -0.23438,0.80274 -0.91407,1.32422 -0.67968,0.52149 -1.70507,0.52149 -1.23047,0 -1.98047,-0.82617 -0.75,-0.82618 -0.75,-2.23829 0,-1.34179 0.75586,-2.2207 0.75586,-0.87891 2.05078,-0.87891 1.26562,0 1.95703,0.86719 0.6914,0.86719 0.6914,2.22656 l -0.006,0.15235 h -4.06055 q 0,0.60351 0.11133,0.9668 0.11718,0.36328 0.45703,0.63281 0.33984,0.26953 0.84961,0.26953 0.99023,0 1.33593,-0.96094 z m -0.082,-1.76953 q -0.006,-0.63867 -0.38672,-1.04297 -0.375,-0.4043 -0.93164,-0.4043 -0.55078,0 -0.91992,0.38086 -0.36914,0.375 -0.43359,1.06641 z"
       id="path4724" /></g><g
     aria-label="note"
     id="text4103-9-0-2"
     style="font-size:12px;font-family:'Franklin Gothic Medium';-inkscape-font-specification:'Franklin Gothic Medium, ';opacity:0.58;fill:#800000;stroke-width:0.999999"><path
       d="m 31.480251,111.129 h -1.335937 v -3.69727 q 0,-0.58594 -0.269531,-0.8789 -0.269532,-0.29883 -0.650391,-0.29883 -0.521484,0 -0.914063,0.45703 -0.392578,0.45703 -0.392578,1.37695 v 3.04102 h -1.335937 v -5.91797 h 1.21875 v 1.37109 q 0.638672,-1.49414 1.792969,-1.49414 0.779296,0 1.330078,0.49219 0.55664,0.49219 0.55664,1.72852 z"
       id="path4653" /><path
       d="m 35.394314,111.25204 q -1.3125,0 -2.003906,-0.94335 -0.691407,-0.94336 -0.691407,-2.16211 0,-1.3125 0.761719,-2.18555 0.767578,-0.87305 2.021484,-0.87305 1.189454,0 1.951172,0.84961 0.767578,0.84961 0.767578,2.20899 0,1.40039 -0.796875,2.25586 -0.791015,0.8496 -2.009765,0.8496 z m 0.04687,-1.10156 q 1.347656,0 1.347656,-2.00976 0,-0.90821 -0.322266,-1.42969 -0.322265,-0.52734 -0.990234,-0.52734 -0.691406,0 -1.025391,0.54492 -0.333984,0.53906 -0.333984,1.43554 0,0.9668 0.351563,1.47657 0.357421,0.50976 0.972656,0.50976 z"
       id="path4655" /><path
       d="m 42.109158,110.08603 v 1.04297 q -0.597657,0.1289 -0.925782,0.1289 -0.539062,0 -0.925781,-0.21093 -0.386719,-0.2168 -0.568359,-0.58594 -0.175782,-0.375 -0.175782,-1.14844 v -3.06445 h -0.738281 v -1.03711 h 0.814453 l 0.123047,-1.54102 1.095703,-0.0996 v 1.64063 h 1.189453 v 1.03711 h -1.189453 v 2.88867 q 0,0.55664 0.199219,0.76172 0.205078,0.19922 0.767578,0.19922 0.158203,0 0.333985,-0.0117 z"
       id="path4657" /><path
       d="m 46.825954,109.24228 1.207032,0.16406 q -0.234375,0.80274 -0.914063,1.32422 -0.679687,0.52148 -1.705078,0.52148 -1.230469,0 -1.980469,-0.82617 -0.75,-0.82617 -0.75,-2.23828 0,-1.3418 0.75586,-2.2207 0.755859,-0.87891 2.050781,-0.87891 1.265625,0 1.957031,0.86719 0.691406,0.86719 0.691406,2.22656 l -0.0059,0.15235 h -4.060547 q 0,0.60351 0.111328,0.96679 0.117188,0.36328 0.457032,0.63282 0.339843,0.26953 0.849609,0.26953 0.990234,0 1.335937,-0.96094 z m -0.08203,-1.76953 q -0.0059,-0.63867 -0.386719,-1.04297 -0.375,-0.4043 -0.93164,-0.4043 -0.550781,0 -0.919922,0.38086 -0.369141,0.375 -0.433594,1.06641 z"
       id="path4659" /></g><g
     aria-label="v/oct"
     id="text4103-9"
     style="font-size:12px;font-family:'Franklin Gothic Medium';-inkscape-font-specification:'Franklin Gothic Medium, ';opacity:0.58;fill:#800000;stroke-width:0.999999"><path
       d="m 16.193857,337.55017 -2.009765,5.91797 H 13.07667 l -2.056641,-5.91797 h 1.394531 l 1.382813,4.01367 1.347656,-4.01367 z"
       id="path4773" /><path
       d="m 21.654795,335.47009 -5.232422,9.9961 h -0.832031 l 5.208984,-9.9961 z"
       id="path4775" /><path
       d="m 25.135263,343.59119 q -1.3125,0 -2.003906,-0.94336 -0.691406,-0.94336 -0.691406,-2.16211 0,-1.3125 0.761719,-2.18555 0.767578,-0.87305 2.021484,-0.87305 1.189453,0 1.951172,0.84961 0.767578,0.84961 0.767578,2.20899 0,1.40039 -0.796875,2.25586 -0.791016,0.84961 -2.009766,0.84961 z m 0.04687,-1.10157 q 1.347657,0 1.347657,-2.00976 0,-0.9082 -0.322266,-1.42969 -0.322266,-0.52734 -0.990234,-0.52734 -0.691407,0 -1.025391,0.54492 -0.333984,0.53906 -0.333984,1.43555 0,0.96679 0.351562,1.47656 0.357422,0.50976 0.972656,0.50976 z"
       id="path4777" /><path
       d="m 32.582529,341.29431 1.148438,0.11719 q -0.222657,1.11328 -0.861329,1.64648 -0.638671,0.53321 -1.541015,0.53321 -1.22461,0 -1.886719,-0.89063 -0.65625,-0.89648 -0.65625,-2.1914 0,-1.33594 0.720703,-2.20899 0.720703,-0.87305 1.921875,-0.87305 1.933594,0 2.302735,2.03907 l -1.148438,0.1582 q -0.152344,-1.10156 -1.083984,-1.10156 -0.679688,0 -0.990235,0.59765 -0.304687,0.5918 -0.304687,1.43555 0,0.89648 0.316406,1.38281 0.322266,0.48633 0.896484,0.48633 0.878907,0 1.166016,-1.13086 z"
       id="path4779" /><path
       d="m 37.498545,342.42517 v 1.04297 q -0.597657,0.12891 -0.925782,0.12891 -0.539062,0 -0.925781,-0.21094 -0.386719,-0.2168 -0.568359,-0.58594 -0.175781,-0.375 -0.175781,-1.14844 v -3.06445 H 34.16456 v -1.03711 h 0.814453 l 0.123047,-1.54101 1.095703,-0.0996 v 1.64062 h 1.189454 v 1.03711 h -1.189454 v 2.88867 q 0,0.55664 0.199219,0.76172 0.205078,0.19922 0.767578,0.19922 0.158203,0 0.333985,-0.0117 z"
       id="path4781" /></g><g
     aria-label="note"
     id="text4103-9-0"
     style="font-size:12px;font-family:'Franklin Gothic Medium';-inkscape-font-specification:'Franklin Gothic Medium, ';opacity:0.58;fill:#800000;stroke-width:0.999999"><path
       d="m 18.141679,304.55792 h -1.335938 v -3.69726 q 0,-0.58594 -0.269531,-0.87891 -0.269531,-0.29883 -0.650391,-0.29883 -0.521484,0 -0.914062,0.45703 -0.392578,0.45703 -0.392578,1.37696 v 3.04101 h -1.335938 v -5.91797 h 1.21875 v 1.3711 q 0.638672,-1.49414 1.792969,-1.49414 0.779297,0 1.330078,0.49218 0.556641,0.49219 0.556641,1.72852 z"
       id="path4740" /><path
       d="m 22.055741,304.68097 q -1.3125,0 -2.003906,-0.94336 -0.691406,-0.94336 -0.691406,-2.16211 0,-1.3125 0.761719,-2.18555 0.767578,-0.87304 2.021484,-0.87304 1.189453,0 1.951172,0.84961 0.767578,0.84961 0.767578,2.20898 0,1.40039 -0.796875,2.25586 -0.791016,0.84961 -2.009766,0.84961 z m 0.04687,-1.10156 q 1.347657,0 1.347657,-2.00977 0,-0.9082 -0.322266,-1.42969 -0.322266,-0.52734 -0.990234,-0.52734 -0.691407,0 -1.025391,0.54492 -0.333984,0.53906 -0.333984,1.43555 0,0.9668 0.351562,1.47656 0.357422,0.50977 0.972656,0.50977 z"
       id="path4742" /><path
       d="m 28.770585,303.51495 v 1.04297 q -0.597656,0.12891 -0.925781,0.12891 -0.539063,0 -0.925781,-0.21094 -0.386719,-0.2168 -0.56836,-0.58594 -0.175781,-0.375 -0.175781,-1.14843 v -3.06446 h -0.738281 v -1.03711 h 0.814453 l 0.123047,-1.54101 1.095703,-0.0996 v 1.64062 h 1.189453 v 1.03711 h -1.189453 v 2.88867 q 0,0.55665 0.199219,0.76172 0.205078,0.19922 0.767578,0.19922 0.158203,0 0.333984,-0.0117 z"
       id="path4744" /><path
       d="m 33.487382,302.6712 1.207031,0.16407 q -0.234375,0.80273 -0.914062,1.32421 -0.679688,0.52149 -1.705078,0.52149 -1.230469,0 -1.980469,-0.82617 -0.75,-0.82617 -0.75,-2.23828 0,-1.3418 0.755859,-2.22071 0.75586,-0.8789 2.050781,-0.8789 1.265625,0 1.957032,0.86718 0.691406,0.86719 0.691406,2.22657 l -0.0059,0.15234 h -4.060547 q 0,0.60352 0.111328,0.9668 0.117187,0.36328 0.457031,0.63281 0.339844,0.26953 0.849609,0.26953 0.990235,0 1.335938,-0.96094 z m -0.08203,-1.76953 q -0.0059,-0.63867 -0.386719,-1.04297 -0.375,-0.40429 -0.931641,-0.40429 -0.550781,0 -0.919922,0.38086 -0.36914,0.375 -0.433593,1.0664 z"
       id="path4746" /></g><g
     aria-label="Gravitational
Harmomy 
"
     id="text4099-8"
     style="font-size:21.3333px;font-family:'Lucida Sans Unicode';-inkscape-font-specification:'Lucida Sans Unicode';text-align:center;text-anchor:middle;opacity:0.58;fill:#800000;stroke-width:0.999999"><path
       d="m 30.005174,16.82363 v 7.270822 h -1.135415 l -0.781248,-1.916664 q -1.239582,2.135414 -3.843744,2.135414 -2.906246,0 -4.343743,-2.20833 -1.427082,-2.20833 -1.427082,-5.114576 0,-3.072911 1.593748,-5.197908 1.604164,-2.1354133 4.47916,-2.1354133 2.14583,0 3.531244,1.2499983 1.385414,1.239581 1.749997,3.093745 l -2.229163,0.395833 q -0.624999,-2.604163 -2.989579,-2.604163 -1.510414,0 -2.468746,1.229165 -0.947915,1.229164 -0.947915,3.781244 0,5.385408 3.374995,5.385408 1.312498,0 2.166663,-0.906249 0.864582,-0.906248 0.864582,-2.395829 H 24.661433 V 16.82363 Z"
       style="font-family:'Franklin Gothic Medium';-inkscape-font-specification:'Franklin Gothic Medium, '"
       id="path4662" /><path
       d="M 35.150999,24.094452 H 32.776003 V 13.573635 h 2.14583 v 2.510413 q 0.458333,-1.468748 1.260415,-2.14583 0.802082,-0.677082 1.645831,-0.677082 0.114583,0 0.312499,0.01042 v 2.55208 q -1.812497,0 -2.406246,1.156248 -0.583333,1.156248 -0.583333,2.23958 z"
       style="font-family:'Franklin Gothic Medium';-inkscape-font-specification:'Franklin Gothic Medium, '"
       id="path4664" /><path
       d="M 48.848896,24.094452 H 46.588482 Q 46.2864,23.13612 46.2239,21.969455 q -0.947915,2.343747 -3.562495,2.343747 -1.572914,0 -2.531246,-0.916666 -0.947915,-0.927082 -0.947915,-2.322913 0,-3.624994 6.364573,-3.624994 0.25,0 0.677083,0.01042 V 16.66738 q 0,-1.635414 -2.229163,-1.635414 -2.166664,0 -2.45833,1.635414 l -2.02083,-0.302083 q 0.166666,-1.312497 1.354164,-2.156246 1.187499,-0.854165 3.437495,-0.854165 1.218748,0 1.98958,0.208333 0.770832,0.197916 1.302081,0.687498 0.53125,0.479166 0.729166,1.052082 0.208333,0.562499 0.208333,1.916664 v 4.749992 q 0,1.031249 0.3125,2.124997 z M 46.2239,18.740294 q -4.60416,0 -4.60416,2.197913 0,0.656249 0.458333,1.124998 0.468749,0.458333 1.406248,0.458333 1.354164,0 2.041663,-0.854166 0.697916,-0.864582 0.697916,-1.95833 z"
       style="font-family:'Franklin Gothic Medium';-inkscape-font-specification:'Franklin Gothic Medium, '"
       id="path4666" /><path
       d="M 59.036381,13.573635 55.46347,24.094452 H 53.494723 L 49.838479,13.573635 h 2.479162 l 2.45833,7.135406 2.395829,-7.135406 z"
       style="font-family:'Franklin Gothic Medium';-inkscape-font-specification:'Franklin Gothic Medium, '"
       id="path4668" /><path
       d="M 62.963455,12.34447 H 60.588459 V 9.8757244 h 2.374996 z m 0,11.749982 H 60.588459 V 13.573635 h 2.374996 z"
       style="font-family:'Franklin Gothic Medium';-inkscape-font-specification:'Franklin Gothic Medium, '"
       id="path4670" /><path
       d="m 70.69261,22.240288 v 1.854164 q -1.062498,0.229166 -1.645831,0.229166 -0.958331,0 -1.64583,-0.374999 -0.687499,-0.385416 -1.010415,-1.041665 -0.3125,-0.666666 -0.3125,-2.041664 v -5.447908 h -1.312498 v -1.843747 h 1.447914 l 0.21875,-2.739579 1.947914,-0.177083 v 2.916662 h 2.11458 v 1.843747 h -2.11458 v 5.135409 q 0,0.989582 0.354166,1.354164 0.364583,0.354166 1.364581,0.354166 0.28125,0 0.593749,-0.02083 z"
       style="font-family:'Franklin Gothic Medium';-inkscape-font-specification:'Franklin Gothic Medium, '"
       id="path4672" /><path
       d="m 81.692592,24.094452 h -2.260413 q -0.302083,-0.958332 -0.364583,-2.124997 -0.947915,2.343747 -3.562494,2.343747 -1.572914,0 -2.531246,-0.916666 -0.947915,-0.927082 -0.947915,-2.322913 0,-3.624994 6.364573,-3.624994 0.25,0 0.677082,0.01042 V 16.66738 q 0,-1.635414 -2.229163,-1.635414 -2.166663,0 -2.458329,1.635414 l -2.02083,-0.302083 q 0.166666,-1.312497 1.354164,-2.156246 1.187498,-0.854165 3.437495,-0.854165 1.218748,0 1.98958,0.208333 0.770832,0.197916 1.302081,0.687498 0.531249,0.479166 0.729166,1.052082 0.208333,0.562499 0.208333,1.916664 v 4.749992 q 0,1.031249 0.312499,2.124997 z m -2.624996,-5.354158 q -4.604159,0 -4.604159,2.197913 0,0.656249 0.458332,1.124998 0.46875,0.458333 1.406248,0.458333 1.354165,0 2.041664,-0.854166 0.697915,-0.864582 0.697915,-1.95833 z"
       style="font-family:'Franklin Gothic Medium';-inkscape-font-specification:'Franklin Gothic Medium, '"
       id="path4674" /><path
       d="m 89.09883,22.240288 v 1.854164 q -1.062499,0.229166 -1.645831,0.229166 -0.958332,0 -1.645831,-0.374999 -0.687499,-0.385416 -1.010415,-1.041665 -0.312499,-0.666666 -0.312499,-2.041664 v -5.447908 h -1.312498 v -1.843747 h 1.447914 l 0.21875,-2.739579 1.947913,-0.177083 v 2.916662 h 2.11458 v 1.843747 h -2.11458 v 5.135409 q 0,0.989582 0.354166,1.354164 0.364583,0.354166 1.364581,0.354166 0.28125,0 0.59375,-0.02083 z"
       style="font-family:'Franklin Gothic Medium';-inkscape-font-specification:'Franklin Gothic Medium, '"
       id="path4676" /><path
       d="M 93.463409,12.34447 H 91.088413 V 9.8757244 h 2.374996 z m 0,11.749982 H 91.088413 V 13.573635 h 2.374996 z"
       style="font-family:'Franklin Gothic Medium';-inkscape-font-specification:'Franklin Gothic Medium, '"
       id="path4678" /><path
       d="m 100.43215,24.313202 q -2.333331,0 -3.562496,-1.677081 -1.229164,-1.677081 -1.229164,-3.843744 0,-2.33333 1.354164,-3.885411 1.364581,-1.55208 3.593746,-1.55208 2.11458,0 3.46874,1.510414 1.36458,1.510414 1.36458,3.927077 0,2.489579 -1.41666,4.01041 -1.40625,1.510415 -3.57291,1.510415 z m 0.0833,-1.958331 q 2.39583,0 2.39583,-3.572911 0,-1.61458 -0.57291,-2.541662 -0.57292,-0.937499 -1.76042,-0.937499 -1.229163,0 -1.822912,0.968749 -0.593749,0.958331 -0.593749,2.552079 0,1.718747 0.624999,2.624996 0.635416,0.906248 1.729162,0.906248 z"
       style="font-family:'Franklin Gothic Medium';-inkscape-font-specification:'Franklin Gothic Medium, '"
       id="path4680" /><path
       d="m 116.30712,24.094452 h -2.375 v -6.572906 q 0,-1.041665 -0.47916,-1.562498 -0.47917,-0.531249 -1.15625,-0.531249 -0.92708,0 -1.625,0.812499 -0.69791,0.812498 -0.69791,2.447912 v 5.406242 h -2.375 V 13.573635 h 2.16666 v 2.437496 q 1.13542,-2.656245 3.1875,-2.656245 1.38541,0 2.36458,0.874998 0.98958,0.874999 0.98958,3.072912 z"
       style="font-family:'Franklin Gothic Medium';-inkscape-font-specification:'Franklin Gothic Medium, '"
       id="path4682" /><path
       d="m 128.15086,24.094452 h -2.26042 q -0.30208,-0.958332 -0.36458,-2.124997 -0.94792,2.343747 -3.56249,2.343747 -1.57292,0 -2.53125,-0.916666 -0.94792,-0.927082 -0.94792,-2.322913 0,-3.624994 6.36458,-3.624994 0.25,0 0.67708,0.01042 V 16.66738 q 0,-1.635414 -2.22916,-1.635414 -2.16667,0 -2.45833,1.635414 l -2.02083,-0.302083 q 0.16666,-1.312497 1.35416,-2.156246 1.1875,-0.854165 3.4375,-0.854165 1.21874,0 1.98958,0.208333 0.77083,0.197916 1.30208,0.687498 0.53125,0.479166 0.72916,1.052082 0.20834,0.562499 0.20834,1.916664 v 4.749992 q 0,1.031249 0.3125,2.124997 z m -2.625,-5.354158 q -4.60416,0 -4.60416,2.197913 0,0.656249 0.45833,1.124998 0.46875,0.458333 1.40625,0.458333 1.35417,0 2.04166,-0.854166 0.69792,-0.864582 0.69792,-1.95833 z"
       style="font-family:'Franklin Gothic Medium';-inkscape-font-specification:'Franklin Gothic Medium, '"
       id="path4684" /><path
       d="m 133.04668,24.094452 h -2.375 V 9.8757244 h 2.375 z"
       style="font-family:'Franklin Gothic Medium';-inkscape-font-specification:'Franklin Gothic Medium, '"
       id="path4686" /><path
       d="m 40.624949,50.894759 h -2.562496 v -6.177073 h -5.427075 v 6.177073 H 30.072882 V 36.676032 h 2.562496 v 5.84374 h 5.427075 v -5.84374 h 2.562496 z"
       style="font-family:'Franklin Gothic Medium';-inkscape-font-specification:'Franklin Gothic Medium, '"
       id="path4688" /><path
       d="m 52.614514,50.894759 h -2.260413 q -0.302083,-0.958332 -0.364583,-2.124996 -0.947915,2.343746 -3.562494,2.343746 -1.572915,0 -2.531246,-0.916665 -0.947916,-0.927082 -0.947916,-2.322913 0,-3.624995 6.364574,-3.624995 0.249999,0 0.677082,0.01042 v -0.791665 q 0,-1.635414 -2.229163,-1.635414 -2.166663,0 -2.45833,1.635414 l -2.02083,-0.302083 q 0.166667,-1.312498 1.354165,-2.156247 1.187498,-0.854165 3.437494,-0.854165 1.218748,0 1.989581,0.208333 0.770832,0.197916 1.302081,0.687499 0.531249,0.479166 0.729165,1.052081 0.208333,0.5625 0.208333,1.916664 v 4.749993 q 0,1.031248 0.3125,2.124996 z m -2.624996,-5.354158 q -4.604159,0 -4.604159,2.197913 0,0.656249 0.458332,1.124998 0.468749,0.458333 1.406248,0.458333 1.354165,0 2.041663,-0.854165 0.697916,-0.864582 0.697916,-1.958331 z"
       style="font-family:'Franklin Gothic Medium';-inkscape-font-specification:'Franklin Gothic Medium, '"
       id="path4690" /><path
       d="M 57.520756,50.894759 H 55.14576 V 40.373943 h 2.14583 v 2.510412 q 0.458333,-1.468747 1.260415,-2.14583 0.802082,-0.677082 1.64583,-0.677082 0.114583,0 0.3125,0.01042 v 2.552079 q -1.812497,0 -2.406246,1.156248 -0.583333,1.156248 -0.583333,2.23958 z"
       style="font-family:'Franklin Gothic Medium';-inkscape-font-specification:'Franklin Gothic Medium, '"
       id="path4692" /><path
       d="m 77.926975,50.894759 h -2.489579 v -6.552073 q 0,-2.041663 -1.812498,-2.041663 -1.052081,0 -1.687497,0.770832 -0.624999,0.770832 -0.624999,2.30208 v 5.520824 h -2.520829 v -6.552073 q 0,-2.072913 -1.697914,-2.072913 -1.031249,0 -1.739581,0.833332 -0.697915,0.833332 -0.697915,2.27083 v 5.520824 H 62.20825 V 40.373943 h 2.302079 v 2.239579 q 1.124999,-2.458329 3.510412,-2.458329 2.322913,0 3.020828,2.458329 1.270832,-2.458329 3.510411,-2.458329 1.520831,0 2.447913,0.947915 0.927082,0.947915 0.927082,2.354163 z"
       style="font-family:'Franklin Gothic Medium';-inkscape-font-specification:'Franklin Gothic Medium, '"
       id="path4694" /><path
       d="m 84.895713,51.113509 q -2.33333,0 -3.562495,-1.677081 -1.229164,-1.67708 -1.229164,-3.843744 0,-2.333329 1.354164,-3.88541 1.364581,-1.552081 3.593745,-1.552081 2.11458,0 3.468744,1.510414 1.364581,1.510414 1.364581,3.927077 0,2.48958 -1.416664,4.010411 -1.406248,1.510414 -3.572911,1.510414 z m 0.08333,-1.95833 q 2.39583,0 2.39583,-3.572911 0,-1.614581 -0.572916,-2.541663 -0.572916,-0.937499 -1.760414,-0.937499 -1.229165,0 -1.822914,0.968749 -0.593749,0.958332 -0.593749,2.552079 0,1.718747 0.624999,2.624996 0.635416,0.906249 1.729164,0.906249 z"
       style="font-family:'Franklin Gothic Medium';-inkscape-font-specification:'Franklin Gothic Medium, '"
       id="path4696" /><path
       d="m 107.77068,50.894759 h -2.48958 v -6.552073 q 0,-2.041663 -1.8125,-2.041663 -1.05208,0 -1.6875,0.770832 -0.625,0.770832 -0.625,2.30208 v 5.520824 h -2.520827 v -6.552073 q 0,-2.072913 -1.697914,-2.072913 -1.031248,0 -1.73958,0.833332 -0.697916,0.833332 -0.697916,2.27083 v 5.520824 H 92.05195 V 40.373943 h 2.30208 v 2.239579 q 1.124998,-2.458329 3.510411,-2.458329 2.322909,0 3.020829,2.458329 1.27083,-2.458329 3.51041,-2.458329 1.52083,0 2.44791,0.947915 0.92709,0.947915 0.92709,2.354163 z"
       style="font-family:'Franklin Gothic Medium';-inkscape-font-specification:'Franklin Gothic Medium, '"
       id="path4698" /><path
       d="M 118.13525,40.373943 114.0415,52.35309 q -0.37499,1.104165 -1.03124,1.708331 -0.64584,0.614582 -1.83333,0.614582 -0.46875,0 -1.36459,-0.07292 v -1.885414 l 1.13542,0.02083 q 0.75,0 1.10416,-0.249999 0.36459,-0.239583 0.57292,-0.864582 0.20833,-0.624999 0.20833,-0.729166 0,-0.0625 -0.21875,-0.645832 l -3.61457,-9.874984 h 2.48958 l 2.55207,6.937489 2.19792,-6.937489 z"
       style="font-family:'Franklin Gothic Medium';-inkscape-font-specification:'Franklin Gothic Medium, '"
       id="path4700" /></g><g
     aria-label="note"
     id="text4103-9-5"
     style="font-size:12px;font-family:'Franklin Gothic Medium';-inkscape-font-specification:'Franklin Gothic Medium, ';opacity:0.58;fill:#800000;stroke-width:0.999999"><path
       d="m 50.310055,344.18298 h -1.335938 v -3.69726 q 0,-0.58594 -0.269531,-0.87891 -0.269531,-0.29883 -0.650391,-0.29883 -0.521484,0 -0.914062,0.45703 -0.392578,0.45704 -0.392578,1.37696 v 3.04101 h -1.335938 v -5.91797 h 1.21875 v 1.3711 q 0.638672,-1.49414 1.792969,-1.49414 0.779297,0 1.330078,0.49219 0.556641,0.49218 0.556641,1.72851 z"
       id="path4784" /><path
       d="m 54.224117,344.30603 q -1.3125,0 -2.003906,-0.94336 -0.691406,-0.94336 -0.691406,-2.16211 0,-1.3125 0.761719,-2.18555 0.767578,-0.87304 2.021484,-0.87304 1.189453,0 1.951172,0.84961 0.767578,0.84961 0.767578,2.20898 0,1.40039 -0.796875,2.25586 -0.791016,0.84961 -2.009766,0.84961 z m 0.04687,-1.10156 q 1.347657,0 1.347657,-2.00977 0,-0.9082 -0.322266,-1.42969 -0.322266,-0.52734 -0.990234,-0.52734 -0.691407,0 -1.025391,0.54492 -0.333984,0.53907 -0.333984,1.43555 0,0.9668 0.351562,1.47656 0.357422,0.50977 0.972656,0.50977 z"
       id="path4786" /><path
       d="m 60.938961,343.14001 v 1.04297 q -0.597656,0.12891 -0.925781,0.12891 -0.539063,0 -0.925781,-0.21094 -0.386719,-0.21679 -0.56836,-0.58594 -0.175781,-0.375 -0.175781,-1.14843 v -3.06446 h -0.738281 v -1.03711 h 0.814453 l 0.123047,-1.54101 1.095703,-0.0996 v 1.64062 h 1.189453 v 1.03711 H 59.63818 v 2.88868 q 0,0.55664 0.199219,0.76171 0.205078,0.19922 0.767578,0.19922 0.158203,0 0.333984,-0.0117 z"
       id="path4788" /><path
       d="m 65.655758,342.29626 1.207031,0.16407 q -0.234375,0.80273 -0.914062,1.32422 -0.679688,0.52148 -1.705078,0.52148 -1.230469,0 -1.980469,-0.82617 -0.75,-0.82617 -0.75,-2.23828 0,-1.3418 0.755859,-2.22071 0.75586,-0.8789 2.050781,-0.8789 1.265625,0 1.957032,0.86719 0.691406,0.86718 0.691406,2.22656 l -0.0059,0.15234 h -4.060547 q 0,0.60352 0.111328,0.9668 0.117187,0.36328 0.457031,0.63281 0.339844,0.26953 0.849609,0.26953 0.990235,0 1.335938,-0.96094 z m -0.08203,-1.76953 q -0.0059,-0.63867 -0.386719,-1.04297 -0.375,-0.40429 -0.931641,-0.40429 -0.550781,0 -0.919922,0.38086 -0.36914,0.375 -0.433593,1.0664 z"
       id="path4790" /></g><text
     xml:space="preserve"
     style="font-size:18.6667px;font-family:'Franklin Gothic Demi';-inkscape-font-specification:'Franklin Gothic Demi';text-align:center;text-anchor:middle;fill:#800000"
     x="89.172348"
     y="364.08957"
     id="text4223"><tspan
       sodipodi:role="line"
       id="tspan4221"></tspan></text><g
     aria-label="chord"
     id="text4103-9-7"
     style="font-size:12px;font-family:'Franklin Gothic Medium';-inkscape-font-specification:'Franklin Gothic Medium, ';opacity:0.58;fill:#800000;stroke-width:0.999999"><path
       d="m 79.908447,342.23181 1.148438,0.11719 q -0.222656,1.11328 -0.861328,1.64648 -0.638672,0.53321 -1.541016,0.53321 -1.224609,0 -1.886719,-0.89063 -0.65625,-0.89648 -0.65625,-2.1914 0,-1.33594 0.720703,-2.20899 0.720704,-0.87305 1.921875,-0.87305 1.933594,0 2.302735,2.03907 l -1.148438,0.1582 q -0.152343,-1.10156 -1.083984,-1.10156 -0.679688,0 -0.990234,0.59765 -0.304688,0.5918 -0.304688,1.43555 0,0.89648 0.316406,1.38281 0.322266,0.48633 0.896485,0.48633 0.878906,0 1.166015,-1.13086 z"
       id="path4793" /><path
       d="m 87.039307,344.40564 h -1.335938 v -3.87305 q 0,-0.62695 -0.269531,-0.8789 -0.263672,-0.25782 -0.621094,-0.25782 -0.568359,0 -0.955078,0.45118 -0.386719,0.45117 -0.386719,1.48828 v 3.07031 H 82.13501 v -7.99805 h 1.335937 v 3.11719 q 0.498047,-1.27734 1.746094,-1.27734 1.822266,0 1.822266,2.09179 z"
       id="path4795" /><path
       d="m 90.959229,344.52869 q -1.3125,0 -2.003907,-0.94336 -0.691406,-0.94336 -0.691406,-2.16211 0,-1.3125 0.761719,-2.18555 0.767578,-0.87305 2.021484,-0.87305 1.189453,0 1.951172,0.84961 0.767578,0.84961 0.767578,2.20899 0,1.40039 -0.796875,2.25586 -0.791015,0.84961 -2.009765,0.84961 z m 0.04687,-1.10157 q 1.347656,0 1.347656,-2.00976 0,-0.9082 -0.322266,-1.42969 -0.322265,-0.52734 -0.990234,-0.52734 -0.691406,0 -1.025391,0.54492 -0.333984,0.53906 -0.333984,1.43555 0,0.96679 0.351562,1.47656 0.357422,0.50976 0.972657,0.50976 z"
       id="path4797" /><path
       d="m 96.326416,344.40564 h -1.335937 v -5.91797 h 1.207031 v 1.41211 q 0.257812,-0.82617 0.708984,-1.20703 0.451172,-0.38086 0.925781,-0.38086 0.06445,0 0.175782,0.006 v 1.43555 q -1.019532,0 -1.353516,0.65039 -0.328125,0.65039 -0.328125,1.25976 z"
       id="path4799" /><path
       d="m 103.83228,344.40564 h -1.24805 v -1.19531 q -0.51563,1.31836 -1.7461,1.31836 -1.089839,0 -1.669917,-0.90821 -0.580078,-0.9082 -0.580078,-2.25586 0,-1.2539 0.603515,-2.18554 0.603516,-0.93164 1.7168,-0.93164 1.14258,0 1.58789,1.04297 v -2.88282 h 1.33594 z m -1.33594,-3.49219 q 0,-0.7207 -0.34571,-1.11914 -0.33984,-0.4043 -0.88476,-0.4043 -0.5918,0 -0.92578,0.51563 -0.33399,0.51562 -0.33399,1.54102 0,1.98046 1.24219,1.98046 0.49219,0 0.86719,-0.42187 0.38086,-0.42774 0.38086,-1.08984 z"
       id="path4801" /></g><g
     aria-label="planet"
     id="text4103-9-73"
     style="font-size:12px;font-family:'Franklin Gothic Medium';-inkscape-font-specification:'Franklin Gothic Medium, ';opacity:0.58;fill:#800000;stroke-width:0.999999"><path
       d="m 111.5227,345.46619 h -1.35938 v -7.91602 h 1.27735 v 1.03125 q 0.61523,-1.1543 1.81054,-1.1543 0.98438,0 1.57032,0.85547 0.58593,0.85547 0.58593,2.18555 0,1.25977 -0.5625,2.19141 -0.55664,0.93164 -1.66406,0.93164 -1.14258,0 -1.6582,-0.94922 z m 0,-4.42383 q 0,0.64453 0.38086,1.07226 0.38672,0.42188 0.85547,0.42188 0.63867,0 0.93164,-0.55664 0.29882,-0.5625 0.29882,-1.42383 0,-0.90234 -0.29882,-1.46484 -0.29883,-0.56836 -0.89063,-0.56836 -0.5332,0 -0.9082,0.46289 -0.36914,0.46289 -0.36914,1.21289 z"
       id="path4804" /><path
       d="m 117.95629,343.46814 h -1.33594 v -7.99805 h 1.33594 z"
       id="path4806" /><path
       d="m 124.62426,343.46814 h -1.27148 q -0.16993,-0.53906 -0.20508,-1.19531 -0.53321,1.31836 -2.00391,1.31836 -0.88476,0 -1.42383,-0.51563 -0.5332,-0.52148 -0.5332,-1.30664 0,-2.03906 3.58008,-2.03906 0.14062,0 0.38086,0.006 v -0.44531 q 0,-0.91993 -1.25391,-0.91993 -1.21875,0 -1.38281,0.91993 l -1.13672,-0.16993 q 0.0937,-0.73828 0.76172,-1.21289 0.66797,-0.48047 1.93359,-0.48047 0.68555,0 1.11914,0.11719 0.4336,0.11133 0.73242,0.38672 0.29883,0.26953 0.41016,0.5918 0.11719,0.3164 0.11719,1.07812 v 2.67188 q 0,0.58008 0.17578,1.19531 z m -1.47656,-3.01172 q -2.58985,0 -2.58985,1.23633 0,0.36914 0.25782,0.63281 0.26367,0.25781 0.79101,0.25781 0.76172,0 1.14844,-0.48046 0.39258,-0.48633 0.39258,-1.10157 z"
       id="path4808" /><path
       d="m 130.94653,343.46814 h -1.33594 v -3.69727 q 0,-0.58593 -0.26953,-0.8789 -0.26953,-0.29883 -0.65039,-0.29883 -0.52149,0 -0.91407,0.45703 -0.39257,0.45703 -0.39257,1.37695 v 3.04102 h -1.33594 v -5.91797 h 1.21875 v 1.37109 q 0.63867,-1.49414 1.79297,-1.49414 0.77929,0 1.33007,0.49219 0.55665,0.49219 0.55665,1.72852 z"
       id="path4810" /><path
       d="m 136.30785,341.58142 1.20703,0.16406 q -0.23437,0.80274 -0.91406,1.32422 -0.67969,0.52149 -1.70508,0.52149 -1.23046,0 -1.98046,-0.82618 -0.75,-0.82617 -0.75,-2.23828 0,-1.34179 0.75585,-2.2207 0.75586,-0.87891 2.05079,-0.87891 1.26562,0 1.95703,0.86719 0.6914,0.86719 0.6914,2.22656 l -0.006,0.15235 h -4.06054 q 0,0.60351 0.11133,0.96679 0.11718,0.36329 0.45703,0.63282 0.33984,0.26953 0.84961,0.26953 0.99023,0 1.33593,-0.96094 z m -0.082,-1.76953 q -0.006,-0.63867 -0.38672,-1.04297 -0.375,-0.4043 -0.93164,-0.4043 -0.55078,0 -0.91992,0.38086 -0.36914,0.375 -0.43359,1.06641 z"
       id="path4812" /><path
       d="m 141.51098,342.42517 v 1.04297 q -0.59766,0.12891 -0.92578,0.12891 -0.53907,0 -0.92578,-0.21094 -0.38672,-0.2168 -0.56836,-0.58594 -0.17578,-0.375 -0.17578,-1.14844 v -3.06445 h -0.73829 v -1.03711 h 0.81446 l 0.12304,-1.54101 1.09571,-0.0996 v 1.64062 h 1.18945 v 1.03711 h -1.18945 v 2.88867 q 0,0.55664 0.19922,0.76172 0.20507,0.19922 0.76757,0.19922 0.15821,0 0.33399,-0.0117 z"
       id="path4814" /></g><g
     aria-label="
satel"
     id="text4103-9-4"
     style="font-size:12px;font-family:'Franklin Gothic Medium';-inkscape-font-specification:'Franklin Gothic Medium, ';opacity:0.58;fill:#800000;stroke-width:0.999999"><path
       d="m 44.713383,303.41827 1.253906,-0.24023 q 0.287109,0.7207 1.265625,0.7207 1.242187,0 1.242187,-0.73242 0,-0.23437 -0.193359,-0.38672 -0.193359,-0.15234 -0.457031,-0.20508 l -1.078125,-0.20507 q -1.792969,-0.34571 -1.792969,-1.75196 0,-0.78515 0.568359,-1.33008 0.56836,-0.55078 1.69336,-0.55078 1.875,0 2.291015,1.37696 l -1.189453,0.24023 q -0.1875,-0.66797 -1.066406,-0.66797 -1.066406,0 -1.066406,0.66797 0,0.46289 0.861328,0.63867 l 1.271484,0.26367 q 1.482422,0.30469 1.482422,1.69922 0,0.97852 -0.761719,1.46485 -0.761718,0.48047 -1.810546,0.48047 -0.908204,0 -1.605469,-0.36329 -0.697266,-0.36914 -0.908203,-1.11914 z"
       id="path4749" /><path
       d="M 55.945805,304.77765 H 54.67432 q -0.169922,-0.53906 -0.205078,-1.19531 -0.533203,1.31836 -2.003906,1.31836 -0.884766,0 -1.423828,-0.51563 -0.533203,-0.52148 -0.533203,-1.30664 0,-2.03906 3.580078,-2.03906 0.140625,0 0.380859,0.006 v -0.44532 q 0,-0.91992 -1.253906,-0.91992 -1.21875,0 -1.382813,0.91992 l -1.136718,-0.16992 q 0.09375,-0.73828 0.761718,-1.21289 0.667969,-0.48047 1.933594,-0.48047 0.685547,0 1.119141,0.11719 0.433593,0.11133 0.732422,0.38672 0.298828,0.26953 0.410156,0.5918 0.117187,0.3164 0.117187,1.07812 v 2.67188 q 0,0.58007 0.175782,1.19531 z m -1.476563,-3.01172 q -2.589844,0 -2.589844,1.23633 0,0.36914 0.257813,0.63281 0.263672,0.25781 0.791015,0.25781 0.761719,0 1.148438,-0.48047 0.392578,-0.48632 0.392578,-1.10156 z"
       id="path4751" /><path
       d="m 60.11182,303.73468 v 1.04297 q -0.597656,0.12891 -0.925781,0.12891 -0.539063,0 -0.925781,-0.21094 -0.386719,-0.2168 -0.56836,-0.58594 -0.175781,-0.375 -0.175781,-1.14844 v -3.06445 h -0.738281 v -1.03711 h 0.814453 l 0.123047,-1.54102 1.095703,-0.0996 v 1.64062 h 1.189453 v 1.03711 h -1.189453 v 2.88867 q 0,0.55664 0.199219,0.76172 0.205078,0.19922 0.767578,0.19922 0.158203,0 0.333984,-0.0117 z"
       id="path4753" /><path
       d="m 64.828617,302.89093 1.207031,0.16406 q -0.234375,0.80274 -0.914062,1.32422 -0.679688,0.52149 -1.705078,0.52149 -1.230469,0 -1.980469,-0.82618 -0.75,-0.82617 -0.75,-2.23828 0,-1.34179 0.755859,-2.2207 0.75586,-0.87891 2.050782,-0.87891 1.265625,0 1.957031,0.86719 0.691406,0.86719 0.691406,2.22656 l -0.0059,0.15235 h -4.060547 q 0,0.60351 0.111328,0.96679 0.117187,0.36329 0.457031,0.63282 0.339844,0.26953 0.84961,0.26953 0.990234,0 1.335937,-0.96094 z m -0.08203,-1.76953 q -0.0059,-0.63867 -0.386719,-1.04297 -0.375,-0.4043 -0.931641,-0.4043 -0.550781,0 -0.919921,0.38086 -0.369141,0.375 -0.433594,1.06641 z"
       id="path4755" /><path
       d="m 68.689945,304.77765 h -1.335937 v -7.99805 h 1.335937 z"
       id="path4757" /></g><text
     xml:space="preserve"
     style="font-style:normal;font-variant:normal;font-weight:normal;font-stretch:normal;font-size:12px;font-family:'Franklin Gothic Demi';-inkscape-font-specification:'Franklin Gothic Demi';clip-rule:evenodd;opacity:0.58;fill:#800000;fill-rule:evenodd;stroke-width:0.999999;stroke-linecap:round;stroke-linejoin:round;stroke-miterlimit:1.5"
     x="66.091919"
     y="316.39825"
     id="text4103-9-3"><tspan
       sodipodi:role="line"
       id="tspan4101-4-1"
       style="font-style:normal;font-variant:normal;font-weight:normal;font-stretch:normal;font-size:12px;font-family:'Franklin Gothic Demi';-inkscape-font-specification:'Franklin Gothic Demi';stroke-width:0.999999"
       x="66.091919"
       y="316.39825"></tspan><tspan
       sodipodi:role="line"
       style="font-style:normal;font-variant:normal;font-weight:normal;font-stretch:normal;font-size:12px;font-family:'Franklin Gothic Demi';-inkscape-font-specification:'Franklin Gothic Demi';stroke-width:0.999999"
       x="66.091919"
       y="331.39825"
       id="tspan4322" /></text><g
     aria-label="
planet"
     id="text4103-9-08"
     style="font-size:12px;font-family:'Franklin Gothic Medium';-inkscape-font-specification:'Franklin Gothic Medium, ';opacity:0.58;fill:#800000;stroke-width:0.999999"><path
       d="m 81.204369,305.84113 h -1.359375 v -7.91602 h 1.277343 v 1.03125 q 0.615235,-1.1543 1.810547,-1.1543 0.984375,0 1.570313,0.85547 0.585937,0.85547 0.585937,2.18555 0,1.25976 -0.5625,2.1914 -0.55664,0.93165 -1.664062,0.93165 -1.142578,0 -1.658203,-0.94922 z m 0,-4.42383 q 0,0.64453 0.380859,1.07226 0.386719,0.42188 0.855469,0.42188 0.638672,0 0.93164,-0.55664 0.298828,-0.5625 0.298828,-1.42383 0,-0.90234 -0.298828,-1.46484 -0.298828,-0.56836 -0.890625,-0.56836 -0.533203,0 -0.908203,0.46289 -0.36914,0.46289 -0.36914,1.21289 z"
       id="path4760" /><path
       d="m 87.637962,303.84308 h -1.335937 v -7.99805 h 1.335937 z"
       id="path4762" /><path
       d="m 94.305931,303.84308 h -1.271484 q -0.169922,-0.53906 -0.205078,-1.19531 -0.533204,1.31836 -2.003907,1.31836 -0.884765,0 -1.423828,-0.51563 -0.533203,-0.52148 -0.533203,-1.30664 0,-2.03906 3.580078,-2.03906 0.140625,0 0.38086,0.006 v -0.44532 q 0,-0.91992 -1.253907,-0.91992 -1.21875,0 -1.382812,0.91992 l -1.136719,-0.16992 q 0.09375,-0.73828 0.761719,-1.21289 0.667969,-0.48047 1.933594,-0.48047 0.685546,0 1.11914,0.11719 0.433594,0.11133 0.732422,0.38672 0.298828,0.26953 0.410156,0.5918 0.117188,0.3164 0.117188,1.07812 v 2.67188 q 0,0.58007 0.175781,1.19531 z m -1.476562,-3.01172 q -2.589844,0 -2.589844,1.23633 0,0.36914 0.257812,0.63281 0.263672,0.25781 0.791016,0.25781 0.761719,0 1.148437,-0.48047 0.392579,-0.48632 0.392579,-1.10156 z"
       id="path4764" /><path
       d="m 100.6282,303.84308 h -1.335941 v -3.69727 q 0,-0.58593 -0.269531,-0.8789 -0.269531,-0.29883 -0.650391,-0.29883 -0.521484,0 -0.914062,0.45703 -0.392578,0.45703 -0.392578,1.37695 v 3.04102 h -1.335938 v -5.91797 h 1.21875 v 1.37109 q 0.638672,-1.49414 1.792969,-1.49414 0.779297,0 1.330082,0.49219 0.55664,0.49219 0.55664,1.72852 z"
       id="path4766" /><path
       d="m 105.98952,301.95636 1.20704,0.16406 q -0.23438,0.80274 -0.91407,1.32422 -0.67968,0.52149 -1.70507,0.52149 -1.23047,0 -1.98047,-0.82618 -0.75,-0.82617 -0.75,-2.23828 0,-1.34179 0.75586,-2.2207 0.75586,-0.87891 2.05078,-0.87891 1.26562,0 1.95703,0.86719 0.6914,0.86719 0.6914,2.22656 l -0.006,0.15235 h -4.06055 q 0,0.60351 0.11133,0.96679 0.11718,0.36328 0.45703,0.63282 0.33984,0.26953 0.84961,0.26953 0.99023,0 1.33593,-0.96094 z m -0.082,-1.76953 q -0.006,-0.63867 -0.38672,-1.04297 -0.375,-0.4043 -0.93164,-0.4043 -0.55078,0 -0.91992,0.38086 -0.36914,0.375 -0.43359,1.06641 z"
       id="path4768" /><path
       d="m 111.19265,302.80011 v 1.04297 q -0.59766,0.1289 -0.92578,0.1289 -0.53906,0 -0.92578,-0.21093 -0.38672,-0.2168 -0.56836,-0.58594 -0.17578,-0.375 -0.17578,-1.14844 v -3.06445 h -0.73828 v -1.03711 h 0.81445 l 0.12305,-1.54102 1.0957,-0.0996 v 1.64063 h 1.18945 v 1.03711 h -1.18945 v 2.88867 q 0,0.55664 0.19922,0.76172 0.20508,0.19922 0.76758,0.19922 0.1582,0 0.33398,-0.0117 z"
       id="path4770" /></g></g>
</svg>
